<svg xmlns="http://www.w3.org/2000/svg" version="1.1" xmlns:xlink="http://www.w3.org/1999/xlink" xmlns:svgjs="http://svgjs.dev/svgjs" width="1000" height="1000" viewBox="0 0 1000 1000"><rect width="1000" height="1000" fill="#000000"></rect><g transform="matrix(0.7,0,0,0.7,149.57575757575756,442.36626147515614)"><svg viewBox="0 0 396 65" data-background-color="#046380" preserveAspectRatio="xMidYMid meet" height="164" width="1000" xmlns="http://www.w3.org/2000/svg" xmlns:xlink="http://www.w3.org/1999/xlink"><defs></defs><g id="tight-bounds" transform="matrix(1,0,0,1,0.2400000000000091,0.13234324141859588)"><svg viewBox="0 0 395.52 64.73531351716284" height="64.73531351716284" width="395.52"><g><svg viewBox="0 0 481.6078791095811 78.8254375164204" height="64.73531351716284" width="395.52"><g transform="matrix(1,0,0,1,0,10.894108947638422)"><svg viewBox="0 0 395.52 57.03721962114355" height="57.03721962114355" width="395.52"><g><svg viewBox="0 0 395.52 57.03721962114355" height="57.03721962114355" width="395.52"><g><svg viewBox="0 0 395.52 30.763150820755758" height="30.763150820755758" width="395.52"><g transform="matrix(1,0,0,1,0,0)"><svg width="395.52" viewBox="1.25 -34.79999923706055 453.82000732421875 35.29999923706055" height="30.763150820755758" data-palette-color="#ffffff"><path d="M1.25-34.3L27.65-34.3 27.65-29.85 16.9-29.85 16.9 0 12 0 12-29.85 1.25-29.85 1.25-34.3ZM33.5-34.3L56-34.3 55.35-29.85 38.4-29.85 38.4-19.75 53.75-19.75 53.75-15.3 38.4-15.3 38.4-4.45 55.65-4.45 56.35 0 33.5 0 33.5-34.3ZM75.75-34.8Q79.75-34.8 82.75-33.15 85.75-31.5 87.37-28.43 89-25.35 89-21.15L89-21.15 84.09-21.15Q84.09-25.5 81.95-27.93 79.8-30.35 75.75-30.35L75.75-30.35Q71.25-30.35 68.9-27.58 66.55-24.8 66.55-19.4L66.55-19.4 66.55-14.9Q66.55-9.55 68.84-6.75 71.15-3.95 75.65-3.95L75.65-3.95Q79.84-3.95 82.07-6.35 84.3-8.75 84.3-13.05L84.3-13.05 89-13.05Q89-8.9 87.37-5.85 85.75-2.8 82.75-1.15 79.75 0.5 75.75 0.5L75.75 0.5Q69.09 0.5 65.37-3.58 61.65-7.65 61.65-14.9L61.65-14.9 61.65-19.4Q61.65-26.6 65.37-30.7 69.09-34.8 75.75-34.8L75.75-34.8ZM116.84-34.3L121.74-34.3 121.74 0 116.84 0 116.84-15.3 101.19-15.3 101.19 0 96.29 0 96.29-34.3 101.19-34.3 101.19-19.75 116.84-19.75 116.84-34.3ZM164.19-34.3L168.64-34.3 168.64 0 164.49 0 147.74-25.1 147.59-25.05 147.59 0 143.14 0 143.14-34.3 147.44-34.3 164.04-9.5 164.19-9.55 164.19-34.3ZM177.84-34.3L200.34-34.3 199.69-29.85 182.74-29.85 182.74-19.75 198.09-19.75 198.09-15.3 182.74-15.3 182.74-4.45 199.99-4.45 200.69 0 177.84 0 177.84-34.3ZM243.28-34.3L248.03-34.3 237.98 0 232.98 0 225.98-24.8 225.63-24.8 218.38 0 213.38 0 203.58-34.3 208.83-34.3 216.08-8.45 216.38-8.45 223.68-34.3 228.43-34.3 235.68-8.45 235.98-8.45 243.28-34.3ZM265.88-34.8Q269.88-34.8 272.88-33.15 275.88-31.5 277.51-28.43 279.13-25.35 279.13-21.15L279.13-21.15 274.23-21.15Q274.23-25.5 272.08-27.93 269.93-30.35 265.88-30.35L265.88-30.35Q261.38-30.35 259.03-27.58 256.68-24.8 256.68-19.4L256.68-19.4 256.68-14.9Q256.68-9.55 258.98-6.75 261.28-3.95 265.78-3.95L265.78-3.95Q269.98-3.95 272.21-6.35 274.43-8.75 274.43-13.05L274.43-13.05 279.13-13.05Q279.13-8.9 277.51-5.85 275.88-2.8 272.88-1.15 269.88 0.5 265.88 0.5L265.88 0.5Q259.23 0.5 255.51-3.58 251.78-7.65 251.78-14.9L251.78-14.9 251.78-19.4Q251.78-26.6 255.51-30.7 259.23-34.8 265.88-34.8L265.88-34.8ZM299.08-34.8Q303.33-34.8 306.53-32.95 309.73-31.1 311.5-27.63 313.28-24.15 313.28-19.4L313.28-19.4 313.28-14.9Q313.28-10.15 311.5-6.68 309.73-3.2 306.53-1.35 303.33 0.5 299.08 0.5L299.08 0.5Q294.83 0.5 291.63-1.35 288.43-3.2 286.65-6.68 284.88-10.15 284.88-14.9L284.88-14.9 284.88-19.4Q284.88-24.15 286.65-27.63 288.43-31.1 291.63-32.95 294.83-34.8 299.08-34.8L299.08-34.8ZM299.08-30.35Q294.68-30.35 292.23-27.55 289.78-24.75 289.78-19.4L289.78-19.4 289.78-14.9Q289.78-9.55 292.15-6.75 294.53-3.95 299.08-3.95L299.08-3.95Q303.48-3.95 305.93-6.73 308.38-9.5 308.38-14.9L308.38-14.9 308.38-19.4Q308.38-24.75 306-27.55 303.63-30.35 299.08-30.35L299.08-30.35ZM350.98-34.3L358.63-34.3 358.63 0 353.73 0 353.73-28.55 353.43-28.55 341.58 0 337.43 0 325.63-28.55 325.38-28.55 325.38 0 320.93 0 320.93-34.3 328.63-34.3 339.68-7.3 339.88-7.3 350.98-34.3ZM367.82-34.3L390.32-34.3 389.67-29.85 372.72-29.85 372.72-19.75 388.07-19.75 388.07-15.3 372.72-15.3 372.72-4.45 389.97-4.45 390.67 0 367.82 0 367.82-34.3ZM412.07-34.3Q416.62-34.3 419.55-32.15 422.47-30 422.47-26.25L422.47-26.25Q422.47-22.9 420.69-20.55 418.92-18.2 416.32-17.7L416.32-17.7 416.32-17.45Q418.72-16.5 420.27-14.15 421.82-11.8 421.82-8.5L421.82-8.5Q421.82-5.75 422.12-4.35 422.42-2.95 422.92-2.4 423.42-1.85 424.37-1.55L424.37-1.55 424.37-0.15Q423.27 0.3 422.02 0.3L422.02 0.3Q419.62 0.3 418.27-1.13 416.92-2.55 416.92-6.5L416.92-6.5Q416.92-10.55 415.25-12.83 413.57-15.1 411.07-15.1L411.07-15.1 402.37-15.1 402.37 0 397.47 0 397.47-34.3 412.07-34.3ZM412.12-29.85L402.37-29.85 402.37-19.55 412.12-19.55Q414.27-19.55 415.92-21 417.57-22.45 417.57-24.6L417.57-24.6 417.57-24.8Q417.57-27 416.07-28.43 414.57-29.85 412.12-29.85L412.12-29.85ZM442.07-34.8Q447.72-34.8 450.94-32.3 454.17-29.8 454.17-25.2L454.17-25.2 454.17-24.6 449.27-24.6 449.27-25.35Q449.27-27.75 447.32-29.05 445.37-30.35 442.17-30.35L442.17-30.35Q438.62-30.35 436.64-29.18 434.67-28 434.67-25.8L434.67-25.8Q434.67-24.15 435.79-23.1 436.92-22.05 438.59-21.45 440.27-20.85 443.22-20.1L443.22-20.1Q447.02-19.1 449.37-18.15 451.72-17.2 453.39-15.3 455.07-13.4 455.07-10.25L455.07-10.25Q455.07-4.65 451.64-2.08 448.22 0.5 442.02 0.5L442.02 0.5Q435.82 0.5 432.39-2.13 428.97-4.75 428.97-9.75L428.97-9.75 429.02-10.75 433.92-10.75 433.87-9.7Q433.87-6.8 436.04-5.38 438.22-3.95 442.07-3.95L442.07-3.95Q445.82-3.95 447.99-5.33 450.17-6.7 450.17-9.1L450.17-9.1Q450.17-11 448.99-12.18 447.82-13.35 446.04-14 444.27-14.65 441.22-15.45L441.22-15.45Q437.47-16.45 435.22-17.35 432.97-18.25 431.37-20.13 429.77-22 429.77-25.05L429.77-25.05Q429.77-30 433.12-32.4 436.47-34.8 442.07-34.8L442.07-34.8Z" opacity="1" transform="matrix(1,0,0,1,0,0)" fill="#ffffff" class="undefined-text-0" data-fill-palette-color="primary" id="text-0"></path></svg></g></svg></g><g transform="matrix(1,0,0,1,218.71186697278833,38.02559241391649)"><svg viewBox="0 0 176.80813302721165 19.011627207227058" height="19.011627207227058" width="176.80813302721165"><g transform="matrix(1,0,0,1,0,0)"><svg width="176.80813302721165" viewBox="1.2699999809265137 -36.279998779296875 440.45001220703125 47.36000061035156" height="19.011627207227058" data-palette-color="#ffffff"><path d="M22.36-36.28L22.36-36.28Q26.37-36.28 30.18-34.96 33.98-33.64 36.94-31.18 39.89-28.71 41.67-25.22 43.46-21.73 43.46-17.38L43.46-17.38Q43.46-13.09 41.58-9.77 39.7-6.45 36.67-4.17 33.64-1.9 29.83-0.73 26.03 0.44 22.17 0.44L22.17 0.44Q17.97 0.44 14.18-0.71 10.4-1.86 7.54-4.13 4.69-6.4 2.98-9.79 1.27-13.18 1.27-17.72L1.27-17.72Q1.27-22.22 3.05-25.68 4.83-29.15 7.76-31.49 10.69-33.84 14.5-35.06 18.31-36.28 22.36-36.28ZM9.47-17.77L9.47-17.77Q9.47-15.04 10.42-12.6 11.38-10.16 13.09-8.33 14.79-6.49 17.11-5.42 19.43-4.35 22.22-4.35L22.22-4.35Q24.8-4.35 27.17-5.44 29.54-6.54 31.32-8.37 33.11-10.21 34.18-12.57 35.25-14.94 35.25-17.53L35.25-17.53Q35.25-21.09 34.23-23.71 33.2-26.32 31.45-28.05 29.69-29.79 27.34-30.64 25-31.49 22.36-31.49L22.36-31.49Q19.63-31.49 17.29-30.35 14.94-29.2 13.21-27.29 11.47-25.39 10.47-22.92 9.47-20.46 9.47-17.77ZM76.22-15.04L76.22-15.04Q76.22-11.67 75.9-8.35 75.58-5.03 75.58-1.66L75.58-1.66Q75.58-0.54 75.73 0.54L75.73 0.54 67.19 0.54Q67.67-0.24 67.92-2.08 68.16-3.91 68.28-5.98 68.41-8.06 68.43-9.99 68.45-11.91 68.45-12.94L68.45-12.94Q68.45-15.92 66.99-17.6 65.52-19.29 62.45-19.29L62.45-19.29Q61.42-19.29 60.47-18.92 59.52-18.55 58.66-17.97 57.81-17.38 57.05-16.65 56.3-15.92 55.71-15.19L55.71-15.19Q55.56-10.94 55.56-6.69L55.56-6.69Q55.56-6.35 55.56-5.35 55.56-4.35 55.61-3.22 55.66-2.1 55.76-1.15 55.86-0.2 56.1 0L56.1 0 47.46 0Q47.65-0.29 47.85-1.44 48.04-2.59 48.19-4.17 48.34-5.76 48.44-7.57 48.53-9.38 48.61-11.04 48.68-12.7 48.7-13.96 48.73-15.23 48.73-15.72L48.73-15.72Q48.73-16.11 48.7-17.36 48.68-18.6 48.58-19.95 48.48-21.29 48.26-22.41 48.04-23.54 47.6-23.68L47.6-23.68 56.15-23.63 56-21.29Q57.81-22.61 60.03-23.46 62.25-24.32 64.55-24.32L64.55-24.32Q66.79-24.32 68.92-23.85 71.04-23.39 72.65-22.29 74.27-21.19 75.24-19.43 76.22-17.68 76.22-15.04ZM81.68 0.44Q81.93 0.05 82.17-1.93 82.42-3.91 82.59-6.67 82.76-9.42 82.91-12.62 83.05-15.82 83.17-18.7 83.3-21.58 83.34-23.78 83.39-25.98 83.39-26.76L83.39-26.76Q83.39-27.2 83.39-28.54 83.39-29.88 83.32-31.4 83.25-32.91 83.05-34.16 82.86-35.4 82.47-35.64L82.47-35.64 91.79-35.55Q91.55-35.5 91.43-34.96 91.3-34.42 91.25-34.23L91.25-34.23Q90.72-31.79 90.57-29.27 90.42-26.76 90.28-24.27L90.28-24.27Q90.03-20.12 89.91-16.06 89.79-12.01 89.79-7.86L89.79-7.86Q89.79-7.47 89.79-6.23 89.79-4.98 89.84-3.61 89.89-2.25 89.99-1.05 90.08 0.15 90.33 0.44L90.33 0.44 81.68 0.44ZM96.82-22.85L96.82-22.85 105.41-22.8Q105.17-22.75 105.05-22.39 104.92-22.02 104.83-21.83L104.83-21.83Q104.48-20.61 104.31-18.87 104.14-17.14 104.07-15.26 104-13.38 103.97-11.62 103.95-9.86 103.95-8.54L103.95-8.54Q103.95-8.11 103.95-6.76 103.95-5.42 104.02-3.91 104.09-2.39 104.24-1.15 104.39 0.1 104.68 0.39L104.68 0.39 96.04 0.39Q96.28 0.05 96.53-1.22 96.77-2.49 96.94-4.25 97.11-6.01 97.26-8.03 97.4-10.06 97.53-11.89 97.65-13.72 97.7-15.16 97.75-16.6 97.75-17.14L97.75-17.14Q97.75-17.43 97.75-18.31 97.75-19.19 97.65-20.14 97.55-21.09 97.36-21.9 97.16-22.71 96.82-22.85ZM101.07-34.67L101.07-34.67Q101.7-34.67 102.48-34.47 103.26-34.28 103.92-33.91 104.58-33.54 105.02-32.93 105.46-32.32 105.46-31.54L105.46-31.54Q105.46-30.76 105.02-30.18 104.58-29.59 103.92-29.22 103.26-28.86 102.48-28.66 101.7-28.47 101.07-28.47L101.07-28.47Q100.38-28.47 99.63-28.66 98.87-28.86 98.21-29.22 97.55-29.59 97.11-30.18 96.67-30.76 96.67-31.54L96.67-31.54Q96.67-32.32 97.11-32.93 97.55-33.54 98.21-33.91 98.87-34.28 99.63-34.47 100.38-34.67 101.07-34.67ZM138.95-15.04L138.95-15.04Q138.95-11.67 138.64-8.35 138.32-5.03 138.32-1.66L138.32-1.66Q138.32-0.54 138.47 0.54L138.47 0.54 129.92 0.54Q130.41-0.24 130.65-2.08 130.9-3.91 131.02-5.98 131.14-8.06 131.17-9.99 131.19-11.91 131.19-12.94L131.19-12.94Q131.19-15.92 129.73-17.6 128.26-19.29 125.19-19.29L125.19-19.29Q124.16-19.29 123.21-18.92 122.26-18.55 121.4-17.97 120.55-17.38 119.79-16.65 119.03-15.92 118.45-15.19L118.45-15.19Q118.3-10.94 118.3-6.69L118.3-6.69Q118.3-6.35 118.3-5.35 118.3-4.35 118.35-3.22 118.4-2.1 118.5-1.15 118.59-0.2 118.84 0L118.84 0 110.2 0Q110.39-0.29 110.59-1.44 110.78-2.59 110.93-4.17 111.07-5.76 111.17-7.57 111.27-9.38 111.34-11.04 111.42-12.7 111.44-13.96 111.46-15.23 111.46-15.72L111.46-15.72Q111.46-16.11 111.44-17.36 111.42-18.6 111.32-19.95 111.22-21.29 111-22.41 110.78-23.54 110.34-23.68L110.34-23.68 118.89-23.63 118.74-21.29Q120.55-22.61 122.77-23.46 124.99-24.32 127.28-24.32L127.28-24.32Q129.53-24.32 131.66-23.85 133.78-23.39 135.39-22.29 137-21.19 137.98-19.43 138.95-17.68 138.95-15.04ZM158 0.73L158 0.73Q155.6 0.73 152.92 0.1 150.23-0.54 147.96-1.88 145.69-3.22 144.2-5.27 142.71-7.32 142.71-10.16L142.71-10.16Q142.71-13.62 144.08-16.36 145.45-19.09 147.74-20.97 150.04-22.85 153.06-23.85 156.09-24.85 159.41-24.85L159.41-24.85Q162.05-24.85 164.1-24 166.15-23.14 167.52-21.61 168.88-20.07 169.59-17.97 170.3-15.87 170.3-13.33L170.3-13.33Q170.3-10.89 169.57-8.64L169.57-8.64 149.21-8.64Q149.69-7.18 150.74-6.25 151.79-5.32 153.14-4.81 154.48-4.3 155.97-4.1 157.46-3.91 158.78-3.91L158.78-3.91Q159.61-3.91 161-4.03 162.39-4.15 163.85-4.42 165.32-4.69 166.61-5.08 167.91-5.47 168.54-6.05L168.54-6.05 170.93-1.86Q167.71-0.63 164.59 0.05 161.46 0.73 158 0.73ZM158-20.26L158-20.26Q156.53-20.26 155.09-19.68 153.65-19.09 152.48-18.14 151.31-17.19 150.43-15.89 149.55-14.6 149.16-13.23L149.16-13.23 163.12-13.23Q163.27-14.7 163.15-15.99 163.02-17.29 162.49-18.24 161.95-19.19 160.88-19.73 159.8-20.26 158-20.26ZM232.65 0L223.47 0Q223.52-0.05 223.52-0.2L223.52-0.2Q223.52-0.54 223.25-1.34 222.98-2.15 222.66-3.05 222.35-3.96 222-4.76 221.66-5.57 221.52-5.91L221.52-5.91Q216.34-6.1 211.14-6.05 205.94-6.01 200.76-5.81L200.76-5.81Q200.62-5.47 200.28-4.66 199.93-3.86 199.62-2.98 199.3-2.1 199.03-1.32 198.76-0.54 198.76-0.2L198.76-0.2Q198.76-0.05 198.81 0L198.81 0 189.68 0Q189.97-0.34 190.39-1.1 190.8-1.86 191.22-2.71 191.63-3.56 192.02-4.37 192.41-5.18 192.61-5.62L192.61-5.62Q193.15-6.69 194.32-9.08 195.49-11.47 196.93-14.53 198.37-17.58 199.91-20.92 201.45-24.27 202.72-27.25 203.99-30.22 204.79-32.47 205.6-34.72 205.6-35.55L205.6-35.55Q205.6-35.64 205.57-35.77 205.55-35.89 205.45-35.89L205.45-35.89 216.88-35.89Q216.78-35.89 216.75-35.77 216.73-35.64 216.73-35.55L216.73-35.55Q216.73-34.72 217.54-32.47 218.34-30.22 219.61-27.25 220.88-24.27 222.42-20.92 223.96-17.58 225.4-14.53 226.84-11.47 227.99-9.08 229.13-6.69 229.67-5.62L229.67-5.62Q229.87-5.18 230.26-4.37 230.65-3.56 231.09-2.71 231.53-1.86 231.94-1.1 232.36-0.34 232.65 0L232.65 0ZM202.77-10.45L204.82-10.4Q212.09-10.4 219.42-10.69L219.42-10.69Q217.41-15.14 215.44-19.48 213.46-23.83 211.16-28.08L211.16-28.08Q208.82-23.78 206.82-19.34 204.82-14.89 202.77-10.45L202.77-10.45ZM253.69-13.82Q254.33-14.5 254.96-15.43 255.6-16.36 255.6-17.29L255.6-17.29Q255.6-18.16 254.96-18.73 254.33-19.29 253.45-19.58 252.57-19.87 251.62-20 250.66-20.12 250.03-20.12L250.03-20.12Q248.03-20.12 246.27-19.41 244.51-18.7 243.19-17.46 241.87-16.21 241.12-14.5 240.36-12.79 240.36-10.74L240.36-10.74Q240.36-8.84 241.17-7.71 241.97-6.59 243.22-6.03 244.46-5.47 246.02-5.32 247.59-5.18 249.15-5.18L249.15-5.18Q251.54-5.18 254.13-5.57 256.72-5.96 259.01-6.64L259.01-6.64 260.33-2.29Q257.99-1.42 255.11-1 252.23-0.59 249.69-0.59L249.69-0.59Q248.17-0.59 246.39-0.76 244.61-0.93 242.8-1.34 241-1.76 239.31-2.44 237.63-3.13 236.31-4.2 234.99-5.27 234.21-6.76 233.43-8.25 233.43-10.21L233.43-10.21Q233.43-13.77 235.16-16.48 236.89-19.19 239.6-21.02 242.31-22.85 245.61-23.78 248.91-24.71 252.08-24.71L252.08-24.71Q253.84-24.71 255.6-24.44 257.35-24.17 258.77-23.44 260.19-22.71 261.06-21.39 261.94-20.07 261.94-17.97L261.94-17.97Q261.94-16.89 261.75-15.87 261.55-14.84 261.26-13.82L261.26-13.82 253.69-13.82ZM292.9 0.59L283.86 0.59Q284.69 0.34 284.89-0.51 285.08-1.37 285.13-2.05L285.13-2.05Q282.94-1.37 280.69-1.03 278.44-0.68 276.2-0.68L276.2-0.68Q274.73-0.68 272.71-0.93 270.68-1.17 268.85-1.86 267.02-2.54 265.72-3.76 264.43-4.98 264.43-6.98L264.43-6.98Q264.43-8.69 265.68-9.91 266.92-11.13 268.87-11.94 270.83-12.74 273.27-13.18 275.71-13.62 278.05-13.87 280.4-14.11 282.45-14.16 284.5-14.21 285.67-14.26L285.67-14.26Q285.67-14.94 285.7-15.58 285.72-16.21 285.72-16.89L285.72-16.89Q285.72-18.12 285.28-19.02 284.84-19.92 284.08-20.51 283.33-21.09 282.3-21.36 281.28-21.63 280.15-21.63L280.15-21.63Q279.08-21.63 277.83-21.34 276.59-21.04 275.47-20.46 274.34-19.87 273.51-18.97 272.68-18.07 272.49-16.89L272.49-16.89 266.33-17.72Q267.21-19.97 268.78-21.53 270.34-23.1 272.32-24.07 274.29-25.05 276.54-25.51 278.79-25.98 281.03-25.98L281.03-25.98Q283.18-25.98 285.21-25.44 287.23-24.9 288.82-23.8 290.41-22.71 291.36-21 292.31-19.29 292.31-16.94L292.31-16.94Q292.31-14.45 292.24-11.99 292.17-9.52 292.17-7.03L292.17-7.03Q292.17-6.59 292.17-5.44 292.17-4.3 292.24-3.05 292.31-1.81 292.46-0.76 292.6 0.29 292.9 0.59L292.9 0.59ZM271.07-6.98L271.07-6.98Q271.07-6.25 271.85-5.86 272.63-5.47 273.68-5.25 274.73-5.03 275.76-4.98 276.78-4.93 277.22-4.93L277.22-4.93Q279.27-4.93 281.37-5.22 283.47-5.52 285.43-6.15L285.43-6.15Q285.48-7.03 285.5-7.91 285.52-8.79 285.52-9.62L285.52-9.62 284.25-9.67Q283.82-9.67 282.67-9.64 281.52-9.62 280.06-9.55 278.59-9.47 277-9.3 275.42-9.13 274.1-8.84 272.78-8.54 271.93-8.08 271.07-7.62 271.07-6.98ZM328.49 0L319.9 0Q320.14-0.63 320.21-1.64 320.29-2.64 320.29-3.32L320.29-3.32Q318.24-1.81 315.7-1.1 313.16-0.39 310.62-0.39L310.62-0.39Q308.18-0.39 305.54-1.1 302.9-1.81 300.71-3.22 298.51-4.64 297.07-6.76 295.63-8.89 295.63-11.72L295.63-11.72Q295.63-14.75 297.27-17.02 298.9-19.29 301.37-20.8 303.83-22.31 306.76-23.07 309.69-23.83 312.28-23.83L312.28-23.83Q314.33-23.83 316.36-23.34 318.38-22.85 320.19-21.73L320.19-21.73Q320.14-22.22 320.12-23.41 320.09-24.61 320.02-26.15 319.95-27.69 319.82-29.35 319.7-31.01 319.51-32.45 319.31-33.89 319.04-34.86 318.77-35.84 318.43-35.99L318.43-35.99 327.71-36.04Q327.37-35.79 327.17-34.67 326.98-33.54 326.9-32.18 326.83-30.81 326.81-29.57 326.78-28.32 326.78-27.83L326.78-27.83Q326.78-26.81 326.83-24.46 326.88-22.12 327-19.17 327.12-16.21 327.27-13.01 327.42-9.81 327.59-7.08 327.76-4.35 328-2.39 328.25-0.44 328.49 0L328.49 0ZM311.84-4.83L311.84-4.83Q312.91-4.83 314.4-5.25 315.89-5.66 317.21-6.45 318.53-7.23 319.46-8.3 320.39-9.38 320.39-10.69L320.39-10.69Q320.39-11.47 320.43-12.3 320.48-13.13 320.39-13.87L320.39-13.87Q320.19-15.19 319.41-16.16 318.63-17.14 317.53-17.77 316.43-18.41 315.16-18.73 313.89-19.04 312.67-19.04L312.67-19.04Q311.01-19.04 309.28-18.6 307.54-18.16 306.13-17.24 304.71-16.31 303.81-14.89 302.9-13.48 302.9-11.52L302.9-11.52Q302.9-9.72 303.73-8.45 304.56-7.18 305.83-6.37 307.1-5.57 308.69-5.2 310.28-4.83 311.84-4.83ZM346.8 0.73L346.8 0.73Q344.41 0.73 341.72 0.1 339.04-0.54 336.76-1.88 334.49-3.22 333-5.27 331.52-7.32 331.52-10.16L331.52-10.16Q331.52-13.62 332.88-16.36 334.25-19.09 336.54-20.97 338.84-22.85 341.87-23.85 344.89-24.85 348.21-24.85L348.21-24.85Q350.85-24.85 352.9-24 354.95-23.14 356.32-21.61 357.69-20.07 358.4-17.97 359.1-15.87 359.1-13.33L359.1-13.33Q359.1-10.89 358.37-8.64L358.37-8.64 338.01-8.64Q338.5-7.18 339.55-6.25 340.6-5.32 341.94-4.81 343.28-4.3 344.77-4.1 346.26-3.91 347.58-3.91L347.58-3.91Q348.41-3.91 349.8-4.03 351.19-4.15 352.66-4.42 354.12-4.69 355.42-5.08 356.71-5.47 357.35-6.05L357.35-6.05 359.74-1.86Q356.52-0.63 353.39 0.05 350.27 0.73 346.8 0.73ZM346.8-20.26L346.8-20.26Q345.33-20.26 343.89-19.68 342.45-19.09 341.28-18.14 340.11-17.19 339.23-15.89 338.35-14.6 337.96-13.23L337.96-13.23 351.93-13.23Q352.07-14.7 351.95-15.99 351.83-17.29 351.29-18.24 350.75-19.19 349.68-19.73 348.61-20.26 346.8-20.26ZM408.95 0L400.41 0Q400.9-0.88 401.22-2.49 401.53-4.1 401.7-5.86 401.87-7.62 401.95-9.3 402.02-10.99 402.02-12.01L402.02-12.01Q402.02-13.28 401.8-14.53 401.58-15.77 401.04-16.72 400.51-17.68 399.53-18.26 398.55-18.85 397.04-18.85L397.04-18.85Q395.18-18.85 393.52-17.87 391.86-16.89 390.6-15.63L390.6-15.63Q390.74-14.5 390.74-13.48L390.74-13.48Q390.74-11.28 390.69-9.13 390.64-6.98 390.64-4.79L390.64-4.79Q390.64-3.56 390.67-2.37 390.69-1.17 390.89 0L390.89 0 382.34 0Q382.83-0.88 383.15-2.49 383.47-4.1 383.66-5.86 383.86-7.62 383.91-9.3 383.95-10.99 383.95-12.01L383.95-12.01Q383.95-13.28 383.73-14.53 383.51-15.77 382.98-16.72 382.44-17.68 381.46-18.26 380.49-18.85 378.97-18.85L378.97-18.85Q377.02-18.85 375.29-17.77 373.55-16.7 372.28-15.28L372.28-15.28Q372.19-13.04 372.14-10.79 372.09-8.54 372.09-6.25L372.09-6.25Q372.09-5.91 372.09-4.91 372.09-3.91 372.14-2.78 372.19-1.66 372.28-0.71 372.38 0.24 372.63 0.44L372.63 0.44 363.98 0.44Q364.18 0.2 364.37-0.95 364.57-2.1 364.72-3.69 364.86-5.27 364.96-7.1 365.06-8.94 365.13-10.6 365.2-12.26 365.23-13.53 365.25-14.79 365.25-15.28L365.25-15.28Q365.25-15.67 365.23-16.92 365.2-18.16 365.11-19.51 365.01-20.85 364.79-21.97 364.57-23.1 364.13-23.24L364.13-23.24 372.68-23.19Q372.58-22.66 372.58-22.05 372.58-21.44 372.53-20.85L372.53-20.85Q374.34-22.17 376.56-23.02 378.78-23.88 381.07-23.88L381.07-23.88Q383.51-23.88 385.69-22.88 387.86-21.88 389.18-19.73L389.18-19.73Q391.08-21.53 393.79-22.71 396.5-23.88 399.14-23.88L399.14-23.88Q401.48-23.88 403.29-23.12 405.1-22.36 406.32-20.97 407.54-19.58 408.17-17.68 408.81-15.77 408.81-13.48L408.81-13.48Q408.81-11.28 408.73-9.13 408.66-6.98 408.66-4.79L408.66-4.79Q408.66-3.56 408.71-2.37 408.76-1.17 408.95 0L408.95 0ZM441.72-24.51Q441.52-24.22 441.42-23.14 441.32-22.07 441.28-20.83 441.23-19.58 441.23-18.43 441.23-17.29 441.23-16.85L441.23-16.85Q441.23-12.84 441.28-8.86 441.32-4.88 441.32-0.93L441.32-0.93Q441.32 2.1 439.98 4.37 438.64 6.64 436.49 8.13 434.34 9.62 431.66 10.35 428.97 11.08 426.29 11.08L426.29 11.08Q423.31 11.08 420.35 11.04 417.4 10.99 414.47 10.94L414.47 10.94 414.96 5.27Q415.69 5.57 417.03 5.83 418.38 6.1 419.84 6.27 421.31 6.45 422.67 6.54 424.04 6.64 424.92 6.64L424.92 6.64Q427.21 6.64 429.02 6.25 430.83 5.86 432.1 4.91 433.37 3.96 434.05 2.29 434.73 0.63 434.73-1.86L434.73-1.86Q434.73-2.29 434.71-2.76 434.68-3.22 434.64-3.66L434.64-3.66Q432.68-2.25 430.34-1.56 427.99-0.88 425.6-0.88L425.6-0.88Q422.09-0.88 419.77-1.98 417.45-3.08 416.08-5 414.71-6.93 414.15-9.59 413.59-12.26 413.59-15.38L413.59-15.38Q413.59-16.89 413.69-18.41 413.79-19.92 413.79-21.44L413.79-21.44Q413.79-22.12 413.71-22.92 413.64-23.73 413.2-24.27L413.2-24.27 422.09-24.22Q421.7-23.58 421.38-22.36 421.06-21.14 420.87-19.78 420.67-18.41 420.57-17.11 420.48-15.82 420.48-15.04L420.48-15.04Q420.48-13.09 420.74-11.43 421.01-9.77 421.79-8.52 422.57-7.28 423.92-6.57 425.26-5.86 427.41-5.86L427.41-5.86Q428.29-5.86 429.41-6.01 430.53-6.15 431.56-6.57 432.58-6.98 433.37-7.67 434.15-8.35 434.29-9.42L434.29-9.42Q434.44-10.3 434.44-11.21 434.44-12.11 434.44-12.94L434.44-12.94Q434.44-13.67 434.37-15.41 434.29-17.14 434.15-18.97 434-20.8 433.73-22.39 433.46-23.97 433.07-24.41L433.07-24.41 441.72-24.51Z" opacity="1" transform="matrix(1,0,0,1,0,0)" fill="#ffffff" class="undefined-text-1" data-fill-palette-color="secondary" id="text-1"></path></svg></g></svg></g></svg></g></svg></g><g transform="matrix(1,0,0,1,402.78244159316074,0)"><svg viewBox="0 0 78.8254375164204 78.8254375164204" height="78.8254375164204" width="78.8254375164204"><g data-palette-color="#ffffff"><rect width="21.545619587821573" height="78.8254375164204" fill="#ffffff" stroke="transparent" data-fill-palette-color="accent" x="0" fill-opacity="1"></rect><rect width="21.545619587821573" height="78.8254375164204" fill="#ffffff" stroke="transparent" data-fill-palette-color="accent" x="26.275145838806797" fill-opacity="0.75"></rect><rect width="21.545619587821573" height="78.8254375164204" fill="#ffffff" stroke="transparent" data-fill-palette-color="accent" x="52.55029167761359" fill-opacity="0.5"></rect></g></svg></g></svg></g></svg><rect width="395.52" height="64.73531351716284" fill="none" stroke="none" visibility="hidden"></rect></g></svg></g></svg>